<svg width="306" height="412" viewBox="0 0 306 412" fill="none" xmlns="http://www.w3.org/2000/svg">
<g clip-path="url(#clip0_21_3)">
<path d="M160.155 240.019C161.243 240.175 163.651 240.487 167.381 240.955C171.266 241.423 173.753 242.125 174.841 243.062C175.929 243.842 176.472 245.012 176.472 246.572C176.472 247.977 175.695 249.381 174.141 250.785C172.743 252.033 171.266 252.58 169.712 252.424L161.787 251.488C162.408 257.885 163.651 268.573 165.516 283.552C167.381 298.376 168.469 305.397 168.78 304.617C168.624 306.178 167.925 307.503 166.682 308.596C165.439 309.688 164.118 310.234 162.719 310.234C159.922 310.234 157.591 306.255 155.726 298.298C154.793 293.773 153.783 285.737 152.695 274.19C151.297 260.616 150.442 252.58 150.131 250.083C137.388 248.991 121.07 248.289 101.178 247.977L87.1919 247.743C67.1446 278.013 48.2629 297.284 30.5467 305.553C24.6413 308.518 19.9791 310 16.5602 310C12.5197 310 10.4994 308.05 10.4994 304.149C10.4994 302.277 11.1987 300.638 12.5974 299.234C13.996 297.673 15.3947 296.893 16.7933 296.893C18.192 296.893 19.3575 297.518 20.2899 298.766C30.8575 294.553 40.2595 288.468 48.496 280.51C56.7325 272.396 65.8237 261.395 75.7696 247.509L66.4453 247.041C59.1413 246.729 53.9352 246.338 50.8271 245.87C47.719 245.246 46.1649 243.92 46.1649 241.891C46.1649 240.331 46.7866 238.849 48.0298 237.444C49.4284 236.04 50.9825 235.182 52.6919 234.87C56.5771 235.494 66.6784 236.196 82.996 236.976C97.9149 214.507 113.3 187.904 129.151 157.165C145.003 126.27 154.716 102.709 158.29 86.4817C158.912 84.9212 159.922 83.5953 161.32 82.5029C162.719 81.4104 164.04 80.8645 165.283 80.8645C166.371 80.8645 167.381 81.7229 168.314 83.4391C169.402 85.1552 169.945 86.872 169.945 88.5882C169.945 90.1487 169.557 91.319 168.78 92.0989C166.293 101.305 163.729 118.156 161.087 142.654C158.601 167.151 157.357 184.549 157.357 194.847C157.357 207.174 158.29 222.231 160.155 240.019ZM147.101 197.422C147.101 179.79 148.732 158.569 151.996 133.76C143.604 151.392 133.891 169.96 122.857 189.464C111.824 208.968 102.344 224.884 94.4183 237.21C115.709 237.21 133.891 237.756 148.966 238.849C147.723 228.082 147.101 214.273 147.101 197.422Z" fill="black"/>
<path d="M177.404 353.809C166.681 353.809 156.813 352.015 147.799 348.426C138.941 344.838 131.871 339.61 126.587 332.745C121.458 325.723 118.894 317.454 118.894 307.935C118.894 293.112 123.323 280.317 132.181 269.551C134.823 266.274 137.698 263.154 140.806 260.189C143.915 257.224 146.401 255.742 148.266 255.742C151.219 255.742 152.695 257.068 152.695 259.721C152.695 260.969 152.384 262.061 151.762 262.998C143.992 270.019 138.398 276.807 134.978 283.36C131.715 289.913 130.083 297.013 130.083 304.659C130.083 317.765 134.668 327.518 143.837 333.915C153.161 340.312 164.739 343.511 178.57 343.511C187.428 343.511 195.198 341.248 201.881 336.724C208.719 332.043 213.925 325.801 217.499 318C221.228 310.198 223.093 301.772 223.093 292.722C223.093 278.991 216.799 257.537 204.212 228.358C191.624 198.868 185.33 178.349 185.33 166.803C185.33 154.788 188.205 144.802 193.955 136.844C199.705 128.886 207.941 124.908 218.664 124.908C226.901 124.908 233.739 127.014 239.178 131.227C244.772 135.284 248.891 139.965 251.533 145.27C254.175 150.419 255.495 154.632 255.495 157.909C255.495 159.469 254.796 160.874 253.397 162.122C252.154 163.214 250.833 163.76 249.435 163.76C247.103 163.76 245.705 162.356 245.239 159.547C244.151 152.369 241.198 146.44 236.38 141.759C231.563 137.078 225.658 134.738 218.664 134.738C211.671 134.738 206.232 137.234 202.347 142.227C198.462 147.065 196.519 153.15 196.519 160.483C196.519 170.782 198.073 180.846 201.181 190.676C204.29 200.35 209.029 212.599 215.401 227.422C221.617 241.621 226.279 253.713 229.387 263.7C232.651 273.53 234.283 283.594 234.283 293.892C234.283 303.879 232.34 313.475 228.455 322.681C224.57 331.731 218.354 339.22 209.806 345.149C201.259 350.923 190.458 353.809 177.404 353.809Z" fill="black"/>
</g>
<circle cx="153" cy="223.229" r="151.5" stroke="black" stroke-width="3"/>
<defs>
<clipPath id="clip0_21_3">
<rect width="255.836" height="411.344" fill="white" transform="translate(10.0332)"/>
</clipPath>
</defs>
</svg>
