<svg width="439" height="703" viewBox="0 0 439 703" fill="none" xmlns="http://www.w3.org/2000/svg">
<path d="M257.6 410.2C259.467 410.467 263.6 411 270 411.8C276.667 412.6 280.933 413.8 282.8 415.4C284.667 416.733 285.6 418.733 285.6 421.4C285.6 423.8 284.267 426.2 281.6 428.6C279.2 430.733 276.667 431.667 274 431.4L260.4 429.8C261.467 440.733 263.6 459 266.8 484.6C270 509.933 271.867 521.933 272.4 520.6C272.133 523.267 270.933 525.533 268.8 527.4C266.667 529.267 264.4 530.2 262 530.2C257.2 530.2 253.2 523.4 250 509.8C248.4 502.067 246.667 488.333 244.8 468.6C242.4 445.4 240.933 431.667 240.4 427.4C218.533 425.533 190.533 424.333 156.4 423.8L132.4 423.4C98 475.133 65.6 508.067 35.2 522.2C25.0667 527.267 17.0667 529.8 11.2 529.8C4.26667 529.8 0.799999 526.467 0.799999 519.8C0.799999 516.6 2 513.8 4.4 511.4C6.8 508.733 9.2 507.4 11.6 507.4C14 507.4 16 508.467 17.6 510.6C35.7333 503.4 51.8667 493 66 479.4C80.1333 465.533 95.7333 446.733 112.8 423L96.8 422.2C84.2667 421.667 75.3333 421 70 420.2C64.6667 419.133 62 416.867 62 413.4C62 410.733 63.0667 408.2 65.2 405.8C67.6 403.4 70.2667 401.933 73.2 401.4C79.8667 402.467 97.2 403.667 125.2 405C150.8 366.6 177.2 321.133 204.4 268.6C231.6 215.8 248.267 175.533 254.4 147.8C255.467 145.133 257.2 142.867 259.6 141C262 139.133 264.267 138.2 266.4 138.2C268.267 138.2 270 139.667 271.6 142.6C273.467 145.533 274.4 148.467 274.4 151.4C274.4 154.067 273.733 156.067 272.4 157.4C268.133 173.133 263.733 201.933 259.2 243.8C254.933 285.667 252.8 315.4 252.8 333C252.8 354.067 254.4 379.8 257.6 410.2ZM235.2 337.4C235.2 307.267 238 271 243.6 228.6C229.2 258.733 212.533 290.467 193.6 323.8C174.667 357.133 158.4 384.333 144.8 405.4C181.333 405.4 212.533 406.333 238.4 408.2C236.267 389.8 235.2 366.2 235.2 337.4ZM272.4 519.4V520.6V519.4Z" fill="black"/>
<path d="M287.199 604.671C268.799 604.671 251.866 601.604 236.399 595.471C221.199 589.338 209.066 580.404 199.999 568.671C191.199 556.671 186.799 542.538 186.799 526.271C186.799 500.938 194.399 479.071 209.599 460.671C214.133 455.071 219.066 449.738 224.399 444.671C229.733 439.604 233.999 437.071 237.199 437.071C242.266 437.071 244.799 439.338 244.799 443.871C244.799 446.004 244.266 447.871 243.199 449.471C229.866 461.471 220.266 473.071 214.399 484.271C208.799 495.471 205.999 507.604 205.999 520.671C205.999 543.071 213.866 559.738 229.599 570.671C245.599 581.604 265.466 587.071 289.199 587.071C304.399 587.071 317.733 583.204 329.199 575.471C340.933 567.471 349.866 556.804 355.999 543.471C362.399 530.138 365.599 515.738 365.599 500.271C365.599 476.804 354.799 440.138 333.199 390.271C311.599 339.871 300.799 304.804 300.799 285.071C300.799 264.538 305.733 247.471 315.599 233.871C325.466 220.271 339.599 213.471 357.999 213.471C372.133 213.471 383.866 217.071 393.199 224.271C402.799 231.204 409.866 239.204 414.399 248.271C418.933 257.071 421.199 264.271 421.199 269.871C421.199 272.538 419.999 274.938 417.599 277.071C415.466 278.938 413.199 279.871 410.799 279.871C406.799 279.871 404.399 277.471 403.599 272.671C401.733 260.404 396.666 250.271 388.399 242.271C380.133 234.271 369.999 230.271 357.999 230.271C345.999 230.271 336.666 234.538 329.999 243.071C323.333 251.338 319.999 261.738 319.999 274.271C319.999 291.871 322.666 309.071 327.999 325.871C333.333 342.404 341.466 363.338 352.399 388.671C363.066 412.938 371.066 433.604 376.399 450.671C381.999 467.471 384.799 484.671 384.799 502.271C384.799 519.338 381.466 535.738 374.799 551.471C368.133 566.938 357.466 579.738 342.799 589.871C328.133 599.738 309.599 604.671 287.199 604.671Z" fill="black"/>
</svg>
