<svg width="306" height="307" viewBox="0 0 306 307" fill="none" xmlns="http://www.w3.org/2000/svg">
<path d="M160.155 170.019C161.243 170.175 163.651 170.487 167.381 170.955C171.266 171.423 173.753 172.125 174.841 173.062C175.929 173.842 176.472 175.012 176.472 176.572C176.472 177.977 175.695 179.381 174.141 180.785C172.743 182.033 171.266 182.58 169.712 182.424L161.787 181.488C162.408 187.885 163.651 198.573 165.516 213.552C167.381 228.376 168.469 235.397 168.78 234.617C168.624 236.178 167.925 237.503 166.682 238.596C165.439 239.688 164.118 240.234 162.719 240.234C159.922 240.234 157.591 236.255 155.726 228.298C154.793 223.773 153.783 215.737 152.695 204.19C151.297 190.616 150.442 182.58 150.131 180.083C137.388 178.991 121.07 178.289 101.178 177.977L87.1919 177.743C67.1446 208.013 48.2629 227.284 30.5467 235.553C24.6413 238.518 19.9791 240 16.5602 240C12.5197 240 10.4994 238.05 10.4994 234.149C10.4994 232.277 11.1987 230.638 12.5974 229.234C13.996 227.673 15.3947 226.893 16.7933 226.893C18.192 226.893 19.3575 227.518 20.2899 228.766C30.8575 224.553 40.2595 218.468 48.496 210.51C56.7325 202.396 65.8237 191.395 75.7696 177.509L66.4453 177.041C59.1413 176.729 53.9352 176.338 50.8271 175.87C47.719 175.246 46.1649 173.92 46.1649 171.891C46.1649 170.331 46.7866 168.849 48.0298 167.444C49.4284 166.04 50.9825 165.182 52.6919 164.87C56.5771 165.494 66.6784 166.196 82.996 166.976C97.9149 144.507 113.3 117.904 129.151 87.1651C145.003 56.2704 154.716 32.709 158.29 16.4817C158.912 14.9212 159.922 13.5953 161.32 12.5029C162.719 11.4104 164.04 10.8645 165.283 10.8645C166.371 10.8645 167.381 11.7229 168.314 13.4391C169.402 15.1552 169.945 16.872 169.945 18.5882C169.945 20.1487 169.557 21.319 168.78 22.0989C166.293 31.3047 163.729 48.1564 161.087 72.6539C158.601 97.1514 157.357 114.549 157.357 124.847C157.357 137.174 158.29 152.231 160.155 170.019ZM147.101 127.422C147.101 109.79 148.732 88.5694 151.996 63.76C143.604 81.3916 133.891 99.96 122.857 119.464C111.824 138.968 102.344 154.884 94.4183 167.21C115.709 167.21 133.891 167.756 148.966 168.849C147.723 158.082 147.101 144.273 147.101 127.422Z" fill="black"/>
<path d="M177.404 293.809C166.681 293.809 156.813 292.015 147.799 288.426C138.941 284.838 131.871 279.61 126.587 272.745C121.458 265.723 118.894 257.454 118.894 247.935C118.894 233.112 123.323 220.317 132.181 209.551C134.823 206.274 137.698 203.154 140.806 200.189C143.915 197.224 146.401 195.742 148.266 195.742C151.219 195.742 152.695 197.068 152.695 199.721C152.695 200.969 152.384 202.061 151.762 202.998C143.992 210.019 138.398 216.807 134.978 223.36C131.715 229.913 130.083 237.013 130.083 244.659C130.083 257.765 134.668 267.518 143.837 273.915C153.161 280.312 164.739 283.511 178.57 283.511C187.428 283.511 195.198 281.248 201.881 276.724C208.719 272.043 213.925 265.801 217.499 258C221.228 250.198 223.093 241.772 223.093 232.722C223.093 218.991 216.799 197.537 204.212 168.358C191.624 138.868 185.33 118.349 185.33 106.803C185.33 94.7883 188.205 84.8019 193.955 76.8442C199.705 68.8865 207.941 64.9076 218.664 64.9076C226.901 64.9076 233.739 67.0141 239.178 71.227C244.772 75.2837 248.891 79.9647 251.533 85.27C254.175 90.4191 255.495 94.6321 255.495 97.9088C255.495 99.4693 254.796 100.874 253.397 102.122C252.154 103.214 250.833 103.76 249.435 103.76C247.103 103.76 245.705 102.356 245.239 99.5471C244.151 92.3694 241.198 86.4403 236.38 81.7593C231.563 77.0782 225.658 74.7377 218.664 74.7377C211.671 74.7377 206.232 77.2345 202.347 82.2274C198.462 87.0646 196.519 93.1499 196.519 100.483C196.519 110.782 198.073 120.846 201.181 130.676C204.29 140.35 209.029 152.599 215.401 167.422C221.617 181.621 226.279 193.713 229.387 203.7C232.651 213.53 234.283 223.594 234.283 233.892C234.283 243.879 232.34 253.475 228.455 262.681C224.57 271.731 218.354 279.22 209.806 285.149C201.259 290.923 190.458 293.809 177.404 293.809Z" fill="black"/>
<circle cx="153" cy="153.229" r="151.5" stroke="black" stroke-width="3"/>
</svg>
